# xmcd
#
# Track frame offsets:
#	150
#	14920
#	26085
#	38902
#	54067
#	68220
#	80604
#	96825
#	113004
#	128092
#	144675
#	162687
#	175060
#	189517
#	205382
#	222342
#	233422
#
# Disc length: 3250 seconds
#
# Revision: 1
# Processed by: cddbd v1.5.2PL0 Copyright (c) Steve Scherf et al.
# Submitted via: audiograbber 1.83.01
#
DISCID=f10cb011
DTITLE=VArios - El Disco de Oro en Marimba
DYEAR=1900
DGENRE=Latin
TTITLE0=Marimba Chapinlandia - Guatemala
TTITLE1=Marimba Antigua - Turismo Guatemalteco
TTITLE2=Marimba Kaibil Balam - Serenata de Tortugas
TTITLE3=Lágrimas de Thelma - Lágrimas de Thelma
TTITLE4=Marimba Hurtado Hermanos - Chuchitos Calientes
TTITLE5=Marimba Chapinlandia - Los Trece
TTITLE6=Marimba Sonora Quetzal - Noches de Escuintla
TTITLE7=Marimba Chapinlandia - Llegrás a Quererme
TTITLE8=Marimba Kaibil Balam - Clavellinas de Nebaj
TTITLE9=Marimba Hurtado Hermanos - Ferrocarril de los Altos
TTITLE10=Marimba Kaibil Balam - Tenis Club
TTITLE11=Marimba Chapinlandia - Remembranza
TTITLE12=Luna de Xelajú - Luna de Xelajú
TTITLE13=Marimba Sonora Quetzal - A´noranza
TTITLE14=Marimba Melgar - Quién te Quiere como yo
TTITLE15=Marimba Folklórica Cakchiquel - El Grito
TTITLE16=Marimba Sonora Quetzal - Donde Paiz
EXTD=
EXTT0=
EXTT1=
EXTT2=
EXTT3=
EXTT4=
EXTT5=
EXTT6=
EXTT7=
EXTT8=
EXTT9=
EXTT10=
EXTT11=
EXTT12=
EXTT13=
EXTT14=
EXTT15=
EXTT16=
PLAYORDER=
